ffmpeg version N-82167-g5e96558 Copyright (c) 2000-2016 the FFmpeg developers
  built with gcc 5.4.0 (Ubuntu 5.4.0-6ubuntu1~16.04.2) 20160609
  configuration: --prefix=/root/ffmpeg_build --pkg-config-flags=--static --extra-cflags=-I/root/ffmpeg_build/include --extra-ldflags=-L/root/ffmpeg_build/lib --bindir=/root/bin --enable-gpl --enable-libass --enable-libfdk-aac --enable-libfreetype --enable-libmp3lame --enable-libopus --enable-libtheora --enable-libvorbis --enable-libx264 --enable-libx265 --enable-nonfree
  libavutil      55. 35.100 / 55. 35.100
  libavcodec     57. 65.100 / 57. 65.100
  libavformat    57. 57.100 / 57. 57.100
  libavdevice    57.  2.100 / 57.  2.100
  libavfilter     6. 66.100 /  6. 66.100
  libswscale      4.  3.100 /  4.  3.100
  libswresample   2.  4.100 /  2.  4.100
  libpostproc    54.  2.100 / 54.  2.100
Input #0, matroska,webm, from '/media/yubikiri/bot/queue/3AnimePahe_Detective_Conan_-_054_720p_Fansub.mkv':
  Metadata:
    title           : 3|Text||0|0
    ALBUM           : Anime
    LANGUAGE        : Undefined
    ENCODER         : Lavf57.57.100
  Duration: 00:24:28.30, start: 0.000000, bitrate: 974 kb/s
    Stream #0:0: Video: mpeg4 (Advanced Simple Profile), yuv420p, 640x480 [SAR 1:1 DAR 4:3], 23.98 fps, 23.98 tbr, 1k tbn, 23.98 tbc (default)
    Metadata:
      DURATION        : 00:24:28.300000000
    Stream #0:1: Audio: mp3, 48000 Hz, stereo, s16p, 128 kb/s (default)
    Metadata:
      DURATION        : 00:24:28.248000000
[libx264 @ 0x2389020] using SAR=1/1
[libx264 @ 0x2389020] using cpu capabilities: MMX2 SSE2Fast SSSE3 SSE4.2 AVX FMA3 AVX2 LZCNT BMI2
[libx264 @ 0x2389020] profile High, level 3.1
[libx264 @ 0x2389020] 264 - core 148 r2643 5c65704 - H.264/MPEG-4 AVC codec - Copyleft 2003-2015 - http://www.videolan.org/x264.html - options: cabac=1 ref=8 deblock=1:1:1 analyse=0x3:0x133 me=umh subme=7 psy=1 psy_rd=0.00:0.00 mixed_ref=1 me_range=8 chroma_me=1 trellis=0 8x8dct=1 cqm=0 deadzone=21,11 fast_pskip=1 chroma_qp_offset=0 threads=8 lookahead_threads=2 sliced_threads=0 nr=0 decimate=1 interlaced=0 bluray_compat=0 constrained_intra=0 bframes=3 b_pyramid=2 b_adapt=2 b_bias=0 direct=1 weightb=1 open_gop=0 weightp=2 keyint=240 keyint_min=24 scenecut=40 intra_refresh=0 rc_lookahead=60 rc=crf mbtree=1 crf=27.0 qcomp=0.60 qpmin=0 qpmax=69 qpstep=4 ip_ratio=1.40 aq=1:1.00
[libfdk_aac @ 0x231c9e0] Note, the VBR setting is unsupported and only works with some parameter combinations
Output #0, mp4, to '/media/yubikiri/bot/queue/3AnimePahe_Detective_Conan_-_054_720p_Fansub.mkv_encoded.mp4':
  Metadata:
    encoder         : Lavf57.57.100
    Stream #0:0: Video: h264 (libx264) ([33][0][0][0] / 0x0021), yuv420p, 640x480 [SAR 1:1 DAR 4:3], q=-1--1, 23.98 fps, 24k tbn, 23.98 tbc (default)
    Metadata:
      encoder         : Lavc57.65.100 libx264
    Side data:
      cpb: bitrate max/min/avg: 0/0/0 buffer size: 0 vbv_delay: -1
    Stream #0:1: Audio: aac (libfdk_aac) (HE-AACv2) ([64][0][0][0] / 0x0040), 48000 Hz, stereo, s16, 48 kb/s (default)
    Metadata:
      encoder         : Lavc57.65.100 libfdk_aac
Stream mapping:
  Stream #0:0 -> #0:0 (mpeg4 (native) -> h264 (libx264))
  Stream #0:1 -> #0:1 (mp3 (native) -> aac (libfdk_aac))
Press [q] to stop, [?] for help
frame=   88 fps=0.0 q=32.0 size=      36kB time=00:00:03.81 bitrate=  77.7kbits/s dup=1 drop=0 speed=4.16x    frame=  150 fps=106 q=32.0 size=     204kB time=00:00:06.42 bitrate= 259.8kbits/s dup=1 drop=0 speed=4.53x    frame=  205 fps=107 q=32.0 size=     355kB time=00:00:08.72 bitrate= 332.8kbits/s dup=1 drop=0 speed=4.54x    frame=  271 fps=112 q=32.0 size=     541kB time=00:00:11.45 bitrate= 386.8kbits/s dup=1 drop=0 speed=4.72x    frame=  352 fps=120 q=32.0 size=     675kB time=00:00:14.82 bitrate= 373.0kbits/s dup=1 drop=0 speed=5.06x    frame=  427 fps=124 q=32.0 size=     866kB time=00:00:17.98 bitrate= 394.4kbits/s dup=1 drop=0 speed=5.22x    frame=  494 fps=125 q=32.0 size=    1034kB time=00:00:20.80 bitrate= 407.2kbits/s dup=1 drop=0 speed=5.27x    frame=  583 fps=131 q=32.0 size=    1177kB time=00:00:24.47 bitrate= 394.0kbits/s dup=1 drop=0 speed=5.49x    frame=  644 fps=130 q=32.0 size=    1316kB time=00:00:27.03 bitrate= 398.8kbits/s dup=1 drop=0 speed=5.45x    frame=  770 fps=141 q=32.0 size=    1444kB time=00:00:32.32 bitrate= 365.9kbits/s dup=1 drop=0 speed=5.92x    frame=  849 fps=143 q=32.0 size=    1598kB time=00:00:35.56 bitrate= 368.1kbits/s dup=1 drop=0 speed=5.97x    frame=  915 fps=142 q=32.0 size=    1671kB time=00:00:38.33 bitrate= 357.1kbits/s dup=1 drop=0 speed=5.93x    frame=  977 fps=140 q=32.0 size=    1808kB time=00:00:40.93 bitrate= 361.9kbits/s dup=1 drop=0 speed=5.87x    frame= 1043 fps=140 q=32.0 size=    2010kB time=00:00:43.67 bitrate= 377.1kbits/s dup=1 drop=0 speed=5.84x    frame= 1132 fps=141 q=32.0 size=    2167kB time=00:00:47.38 bitrate= 374.7kbits/s dup=1 drop=0 speed= 5.9x    frame= 1191 fps=140 q=32.0 size=    2326kB time=00:00:49.81 bitrate= 382.6kbits/s dup=1 drop=0 speed=5.84x    frame= 1254 fps=139 q=32.0 size=    2499kB time=00:00:52.45 bitrate= 390.2kbits/s dup=1 drop=0 speed= 5.8x    frame= 1325 fps=139 q=32.0 size=    2635kB time=00:00:55.40 bitrate= 389.7kbits/s dup=1 drop=0 speed= 5.8x    frame= 1435 fps=143 q=32.0 size=    2776kB time=00:01:00.01 bitrate= 379.0kbits/s dup=1 drop=0 speed=5.97x    frame= 1535 fps=145 q=32.0 size=    2924kB time=00:01:04.15 bitrate= 373.4kbits/s dup=1 drop=0 speed=6.08x    frame= 1603 fps=145 q=32.0 size=    3040kB time=00:01:07.00 bitrate= 371.6kbits/s dup=1 drop=0 speed=6.06x    frame= 1672 fps=145 q=32.0 size=    3169kB time=00:01:09.86 bitrate= 371.5kbits/s dup=1 drop=0 speed=6.05x    frame= 1750 fps=145 q=32.0 size=    3302kB time=00:01:13.15 bitrate= 369.8kbits/s dup=1 drop=0 speed=6.07x    frame= 1848 fps=147 q=32.0 size=    3437kB time=00:01:17.24 bitrate= 364.5kbits/s dup=1 drop=0 speed=6.15x    frame= 1945 fps=149 q=32.0 size=    3559kB time=00:01:21.30 bitrate= 358.7kbits/s dup=1 drop=0 speed=6.22x    frame= 2012 fps=148 q=32.0 size=    3717kB time=00:01:24.07 bitrate= 362.2kbits/s dup=1 drop=0 speed=6.19x    frame= 2053 fps=146 q=32.0 size=    3862kB time=00:01:25.78 bitrate= 368.8kbits/s dup=1 drop=0 speed=6.09x    frame= 2100 fps=144 q=32.0 size=    4021kB time=00:01:27.74 bitrate= 375.4kbits/s dup=1 drop=0 speed=6.01x    frame= 2180 fps=144 q=32.0 size=    4165kB time=00:01:31.07 bitrate= 374.6kbits/s dup=1 drop=0 speed=6.03x    frame= 2316 fps=148 q=32.0 size=    4303kB time=00:01:36.74 bitrate= 364.4kbits/s dup=1 drop=0 speed= 6.2x    frame= 2463 fps=153 q=32.0 size=    4436kB time=00:01:42.89 bitrate= 353.2kbits/s dup=1 drop=0 speed=6.39x    frame= 2589 fps=156 q=32.0 size=    4565kB time=00:01:48.13 bitrate= 345.8kbits/s dup=1 drop=0 speed=6.51x    frame= 2648 fps=155 q=32.0 size=    4742kB time=00:01:50.57 bitrate= 351.3kbits/s dup=1 drop=0 speed=6.46x    frame= 2728 fps=155 q=32.0 size=    4902kB time=00:01:53.94 bitrate= 352.4kbits/s dup=1 drop=0 speed=6.46x    frame= 2816 fps=155 q=32.0 size=    4976kB time=00:01:57.61 bitrate= 346.6kbits/s dup=1 drop=0 speed=6.49x    frame= 2917 fps=157 q=32.0 size=    5065kB time=00:02:01.83 bitrate= 340.5kbits/s dup=1 drop=0 speed=6.54x    frame= 3014 fps=157 q=32.0 size=    5247kB time=00:02:05.88 bitrate= 341.4kbits/s dup=1 drop=0 speed=6.57x    frame= 3114 fps=158 q=32.0 size=    5349kB time=00:02:10.02 bitrate= 337.0kbits/s dup=1 drop=0 speed=6.61x    frame= 3174 fps=157 q=32.0 size=    5392kB time=00:02:12.54 bitrate= 333.2kbits/s dup=1 drop=0 speed=6.57x    frame= 3219 fps=156 q=32.0 size=    5490kB time=00:02:14.42 bitrate= 334.5kbits/s dup=1 drop=0 speed= 6.5x    frame= 3263 fps=154 q=32.0 size=    5549kB time=00:02:16.25 bitrate= 333.6kbits/s dup=1 drop=0 speed=6.42x    frame= 3328 fps=153 q=32.0 size=    5598kB time=00:02:18.94 bitrate= 330.0kbits/s dup=1 drop=0 speed=6.39x    frame= 3395 fps=153 q=32.0 size=    5655kB time=00:02:21.76 bitrate= 326.8kbits/s dup=1 drop=0 speed=6.37x    frame= 3458 fps=152 q=32.0 size=    5752kB time=00:02:24.36 bitrate= 326.4kbits/s dup=1 drop=0 speed=6.34x    frame= 3504 fps=150 q=32.0 size=    5812kB time=00:02:26.28 bitrate= 325.5kbits/s dup=1 drop=0 speed=6.28x    frame= 3548 fps=149 q=32.0 size=    5902kB time=00:02:28.16 bitrate= 326.3kbits/s dup=1 drop=0 speed=6.23x    frame= 3594 fps=148 q=32.0 size=    5960kB time=00:02:30.03 bitrate= 325.4kbits/s dup=1 drop=0 speed=6.18x    frame= 3643 fps=147 q=32.0 size=    6016kB time=00:02:32.12 bitrate= 324.0kbits/s dup=1 drop=0 speed=6.13x    frame= 3687 fps=146 q=32.0 size=    6108kB time=00:02:33.92 bitrate= 325.1kbits/s dup=1 drop=0 speed=6.08x    frame= 3739 fps=145 q=32.0 size=    6193kB time=00:02:36.13 bitrate= 324.9kbits/s dup=1 drop=0 speed=6.05x    frame= 3820 fps=145 q=32.0 size=    6263kB time=00:02:39.46 bitrate= 321.8kbits/s dup=1 drop=0 speed=6.06x    frame= 3896 fps=145 q=32.0 size=    6370kB time=00:02:42.62 bitrate= 320.9kbits/s dup=1 drop=0 speed=6.06x    frame= 3958 fps=145 q=32.0 size=    6461kB time=00:02:45.22 bitrate= 320.4kbits/s dup=1 drop=0 speed=6.05x    frame= 4023 fps=145 q=32.0 size=    6518kB time=00:02:47.95 bitrate= 317.9kbits/s dup=1 drop=0 speed=6.04x    frame= 4080 fps=144 q=32.0 size=    6599kB time=00:02:50.34 bitrate= 317.4kbits/s dup=1 drop=0 speed=6.01x    frame= 4153 fps=144 q=32.0 size=    6660kB time=00:02:53.37 bitrate= 314.7kbits/s dup=1 drop=0 speed=6.01x    frame= 4208 fps=143 q=32.0 size=    6706kB time=00:02:55.68 bitrate= 312.7kbits/s dup=1 drop=0 speed=5.99x    frame= 4291 fps=144 q=32.0 size=    6754kB time=00:02:59.09 bitrate= 309.0kbits/s dup=1 drop=0 speed=   6x    frame= 4347 fps=143 q=32.0 size=    6847kB time=00:03:01.48 bitrate= 309.1kbits/s dup=1 drop=0 speed=5.98x    frame= 4392 fps=142 q=32.0 size=    6929kB time=00:03:03.31 bitrate= 309.6kbits/s dup=1 drop=0 speed=5.94x    frame= 4462 fps=142 q=32.0 size=    6981kB time=00:03:06.30 bitrate= 306.9kbits/s dup=1 drop=0 speed=5.94x    frame= 4535 fps=142 q=32.0 size=    7102kB time=00:03:09.33 bitrate= 307.3kbits/s dup=1 drop=0 speed=5.94x    frame= 4614 fps=142 q=32.0 size=    7193kB time=00:03:12.61 bitrate= 305.9kbits/s dup=1 drop=0 speed=5.95x    frame= 4679 fps=142 q=32.0 size=    7270kB time=00:03:15.30 bitrate= 304.9kbits/s dup=1 drop=0 speed=5.94x    frame= 4756 fps=142 q=32.0 size=    7357kB time=00:03:18.50 bitrate= 303.6kbits/s dup=1 drop=0 speed=5.95x    frame= 4821 fps=142 q=32.0 size=    7453kB time=00:03:21.23 bitrate= 303.4kbits/s dup=1 drop=0 speed=5.94x    frame= 4900 fps=142 q=32.0 size=    7518kB time=00:03:24.52 bitrate= 301.1kbits/s dup=1 drop=0 speed=5.94x    frame= 4975 fps=142 q=32.0 size=    7620kB time=00:03:27.63 bitrate= 300.6kbits/s dup=1 drop=0 speed=5.95x    frame= 5055 fps=143 q=32.0 size=    7687kB time=00:03:30.96 bitrate= 298.5kbits/s dup=1 drop=0 speed=5.96x    frame= 5118 fps=143 q=32.0 size=    7778kB time=00:03:33.61 bitrate= 298.3kbits/s dup=1 drop=0 speed=5.95x    frame= 5204 fps=143 q=32.0 size=    7865kB time=00:03:37.19 bitrate= 296.7kbits/s dup=1 drop=0 speed=5.96x    frame= 5273 fps=143 q=32.0 size=    7968kB time=00:03:40.05 bitrate= 296.6kbits/s dup=1 drop=0 speed=5.96x    frame= 5340 fps=143 q=32.0 size=    8055kB time=00:03:42.87 bitrate= 296.1kbits/s dup=1 drop=0 speed=5.95x    frame= 5406 fps=143 q=32.0 size=    8128kB time=00:03:45.64 bitrate= 295.1kbits/s dup=1 drop=0 speed=5.95x    frame= 5461 fps=142 q=32.0 size=    8241kB time=00:03:47.94 bitrate= 296.2kbits/s dup=1 drop=0 speed=5.93x    frame= 5521 fps=142 q=32.0 size=    8362kB time=00:03:50.46 bitrate= 297.2kbits/s dup=1 drop=0 speed=5.92x    frame= 5598 fps=142 q=32.0 size=    8446kB time=00:03:53.62 bitrate= 296.2kbits/s dup=1 drop=0 speed=5.92x    frame= 5664 fps=142 q=32.0 size=    8506kB time=00:03:56.39 bitrate= 294.8kbits/s dup=1 drop=0 speed=5.92x    frame= 5733 fps=142 q=32.0 size=    8620kB time=00:03:59.25 bitrate= 295.2kbits/s dup=1 drop=0 speed=5.92x    frame= 5795 fps=142 q=32.0 size=    8696kB time=00:04:01.85 bitrate= 294.6kbits/s dup=1 drop=0 speed=5.91x    frame= 5841 fps=141 q=32.0 size=    8792kB time=00:04:03.77 bitrate= 295.5kbits/s dup=1 drop=0 speed=5.88x    frame= 5912 fps=141 q=32.0 size=    8879kB time=00:04:06.72 bitrate= 294.8kbits/s dup=1 drop=0 speed=5.88x    frame= 5985 fps=141 q=32.0 size=    8993kB time=00:04:09.79 bitrate= 294.9kbits/s dup=1 drop=0 speed=5.88x    frame= 6060 fps=141 q=32.0 size=    9083kB time=00:04:12.90 bitrate= 294.2kbits/s dup=1 drop=0 speed=5.89x    frame= 6142 fps=141 q=32.0 size=    9151kB time=00:04:16.36 bitrate= 292.4kbits/s dup=1 drop=0 speed= 5.9x    frame= 6218 fps=141 q=32.0 size=    9224kB time=00:04:19.52 bitrate= 291.2kbits/s dup=1 drop=0 speed= 5.9x    frame= 6301 fps=142 q=32.0 size=    9308kB time=00:04:22.97 bitrate= 290.0kbits/s dup=1 drop=0 speed=5.91x    frame= 6377 fps=142 q=32.0 size=    9359kB time=00:04:26.13 bitrate= 288.1kbits/s dup=1 drop=0 speed=5.92x    frame= 6418 fps=141 q=32.0 size=    9436kB time=00:04:27.84 bitrate= 288.6kbits/s dup=1 drop=0 speed=5.89x    frame= 6488 fps=141 q=29.0 size=    9521kB time=00:04:30.78 bitrate= 288.0kbits/s dup=1 drop=0 speed=5.89x    frame= 6557 fps=141 q=32.0 size=    9634kB time=00:04:33.64 bitrate= 288.4kbits/s dup=1 drop=0 speed=5.89x    frame= 6606 fps=141 q=32.0 size=    9720kB time=00:04:35.69 bitrate= 288.8kbits/s dup=1 drop=0 speed=5.87x    frame= 6649 fps=140 q=32.0 size=    9835kB time=00:04:37.48 bitrate= 290.3kbits/s dup=1 drop=0 speed=5.84x    frame= 6716 fps=140 q=32.0 size=    9917kB time=00:04:40.25 bitrate= 289.9kbits/s dup=1 drop=0 speed=5.84x    frame= 6782 fps=140 q=32.0 size=    9997kB time=00:04:43.03 bitrate= 289.3kbits/s dup=1 drop=0 speed=5.83x    frame= 6856 fps=140 q=32.0 size=   10076kB time=00:04:46.10 bitrate= 288.5kbits/s dup=1 drop=0 speed=5.84x    frame= 6948 fps=140 q=32.0 size=   10168kB time=00:04:49.94 bitrate= 287.3kbits/s dup=1 drop=0 speed=5.85x    frame= 7013 fps=140 q=32.0 size=   10288kB time=00:04:52.67 bitrate= 288.0kbits/s dup=1 drop=0 speed=5.85x    frame= 7050 fps=139 q=32.0 size=   10366kB time=00:04:54.20 bitrate= 288.6kbits/s dup=1 drop=0 speed=5.82x    frame= 7095 fps=139 q=32.0 size=   10468kB time=00:04:56.08 bitrate= 289.6kbits/s dup=1 drop=0 speed= 5.8x    frame= 7160 fps=139 q=32.0 size=   10579kB time=00:04:58.81 bitrate= 290.0kbits/s dup=1 drop=0 speed=5.79x    frame= 7218 fps=138 q=32.0 size=   10690kB time=00:05:01.20 bitrate= 290.7kbits/s dup=1 drop=0 speed=5.78x    frame= 7269 fps=138 q=32.0 size=   10830kB time=00:05:03.33 bitrate= 292.5kbits/s dup=1 drop=0 speed=5.76x    frame= 7315 fps=138 q=32.0 size=   10946kB time=00:05:05.25 bitrate= 293.7kbits/s dup=1 drop=0 speed=5.75x    frame= 7397 fps=138 q=32.0 size=   11038kB time=00:05:08.67 bitrate= 292.9kbits/s dup=1 drop=0 speed=5.75x    frame= 7477 fps=138 q=32.0 size=   11132kB time=00:05:12.04 bitrate= 292.2kbits/s dup=1 drop=0 speed=5.76x    frame= 7535 fps=138 q=32.0 size=   11231kB time=00:05:14.43 bitrate= 292.6kbits/s dup=1 drop=0 speed=5.75x    frame= 7606 fps=138 q=32.0 size=   11344kB time=00:05:17.41 bitrate= 292.8kbits/s dup=1 drop=0 speed=5.75x    frame= 7668 fps=138 q=32.0 size=   11455kB time=00:05:19.97 bitrate= 293.3kbits/s dup=1 drop=0 speed=5.75x    frame= 7747 fps=138 q=32.0 size=   11585kB time=00:05:23.26 bitrate= 293.6kbits/s dup=1 drop=0 speed=5.75x    frame= 7832 fps=138 q=32.0 size=   11680kB time=00:05:26.80 bitrate= 292.8kbits/s dup=1 drop=0 speed=5.76x    frame= 7889 fps=138 q=32.0 size=   11788kB time=00:05:29.19 bitrate= 293.3kbits/s dup=1 drop=0 speed=5.75x    frame= 7945 fps=138 q=32.0 size=   11931kB time=00:05:31.54 bitrate= 294.8kbits/s dup=1 drop=0 speed=5.74x    frame= 7996 fps=137 q=29.0 size=   12045kB time=00:05:33.63 bitrate= 295.7kbits/s dup=1 drop=0 speed=5.73x    frame= 8037 fps=137 q=32.0 size=   12216kB time=00:05:35.38 bitrate= 298.4kbits/s dup=1 drop=0 speed=5.71x    frame= 8084 fps=136 q=32.0 size=   12358kB time=00:05:37.30 bitrate= 300.1kbits/s dup=1 drop=0 speed=5.69x    frame= 8144 fps=136 q=32.0 size=   12469kB time=00:05:39.81 bitrate= 300.6kbits/s dup=1 drop=0 speed=5.69x    frame= 8211 fps=136 q=32.0 size=   12566kB time=00:05:42.63 bitrate= 300.4kbits/s dup=1 drop=0 speed=5.69x    frame= 8284 fps=136 q=32.0 size=   12680kB time=00:05:45.66 bitrate= 300.5kbits/s dup=1 drop=0 speed=5.69x    frame= 8357 fps=136 q=32.0 size=   12777kB time=00:05:48.73 bitrate= 300.1kbits/s dup=1 drop=0 speed=5.69x    frame= 8441 fps=137 q=32.0 size=   12870kB time=00:05:52.23 bitrate= 299.3kbits/s dup=1 drop=0 speed= 5.7x    frame= 8498 fps=136 q=32.0 size=   12991kB time=00:05:54.58 bitrate= 300.1kbits/s dup=1 drop=0 speed=5.69x    frame= 8527 fps=136 q=32.0 size=   13111kB time=00:05:55.81 bitrate= 301.8kbits/s dup=1 drop=0 speed=5.66x    frame= 8557 fps=135 q=32.0 size=   13212kB time=00:05:57.05 bitrate= 303.1kbits/s dup=1 drop=0 speed=5.64x    frame= 8595 fps=135 q=32.0 size=   13356kB time=00:05:58.63 bitrate= 305.1kbits/s dup=1 drop=0 speed=5.62x    frame= 8644 fps=134 q=32.0 size=   13484kB time=00:06:00.68 bitrate= 306.2kbits/s dup=1 drop=0 speed= 5.6x    frame= 8721 fps=134 q=32.0 size=   13625kB time=00:06:03.88 bitrate= 306.7kbits/s dup=1 drop=0 speed=5.61x    frame= 8798 fps=135 q=32.0 size=   13724kB time=00:06:07.08 bitrate= 306.3kbits/s dup=1 drop=0 speed=5.62x    frame= 8862 fps=134 q=32.0 size=   13837kB time=00:06:09.77 bitrate= 306.6kbits/s dup=1 drop=0 speed=5.61x    frame= 8919 fps=134 q=32.0 size=   13988kB time=00:06:12.16 bitrate= 307.9kbits/s dup=1 drop=0 speed= 5.6x    frame= 8971 fps=134 q=32.0 size=   14083kB time=00:06:14.33 bitrate= 308.2kbits/s dup=1 drop=0 speed=5.59x    frame= 9038 fps=134 q=32.0 size=   14179kB time=00:06:17.11 bitrate= 308.0kbits/s dup=1 drop=0 speed=5.59x    frame= 9116 fps=134 q=32.0 size=   14283kB time=00:06:20.35 bitrate= 307.6kbits/s dup=1 drop=0 speed= 5.6x    frame= 9217 fps=135 q=32.0 size=   14370kB time=00:06:24.57 bitrate= 306.1kbits/s dup=1 drop=0 speed=5.62x    frame= 9294 fps=135 q=32.0 size=   14450kB time=00:06:27.77 bitrate= 305.3kbits/s dup=1 drop=0 speed=5.62x    frame= 9361 fps=135 q=32.0 size=   14540kB time=00:06:30.59 bitrate= 305.0kbits/s dup=1 drop=0 speed=5.62x    frame= 9424 fps=135 q=32.0 size=   14645kB time=00:06:33.23 bitrate= 305.1kbits/s dup=1 drop=0 speed=5.62x    frame= 9501 fps=135 q=32.0 size=   14759kB time=00:06:36.43 bitrate= 305.0kbits/s dup=1 drop=0 speed=5.62x    frame= 9580 fps=135 q=32.0 size=   14882kB time=00:06:39.72 bitrate= 305.0kbits/s dup=1 drop=0 speed=5.63x    frame= 9657 fps=135 q=32.0 size=   14975kB time=00:06:42.92 bitrate= 304.5kbits/s dup=1 drop=0 speed=5.64x    frame= 9715 fps=135 q=32.0 size=   15053kB time=00:06:45.35 bitrate= 304.2kbits/s dup=1 drop=0 speed=5.63x    frame= 9797 fps=135 q=32.0 size=   15142kB time=00:06:48.76 bitrate= 303.5kbits/s dup=1 drop=0 speed=5.64x    frame= 9858 fps=135 q=32.0 size=   15230kB time=00:06:51.32 bitrate= 303.3kbits/s dup=1 drop=0 speed=5.64x    frame= 9914 fps=135 q=32.0 size=   15302kB time=00:06:53.67 bitrate= 303.0kbits/s dup=1 drop=0 speed=5.63x    frame= 9994 fps=135 q=32.0 size=   15386kB time=00:06:57.00 bitrate= 302.3kbits/s dup=1 drop=0 speed=5.63x    frame=10059 fps=135 q=32.0 size=   15465kB time=00:06:59.69 bitrate= 301.9kbits/s dup=1 drop=0 speed=5.63x    frame=10118 fps=135 q=32.0 size=   15572kB time=00:07:02.16 bitrate= 302.2kbits/s dup=1 drop=0 speed=5.63x    frame=10193 fps=135 q=32.0 size=   15685kB time=00:07:05.32 bitrate= 302.1kbits/s dup=1 drop=0 speed=5.63x    frame=10269 fps=135 q=32.0 size=   15789kB time=00:07:08.48 bitrate= 301.9kbits/s dup=1 drop=0 speed=5.63x    frame=10365 fps=135 q=32.0 size=   15889kB time=00:07:12.44 bitrate= 301.0kbits/s dup=1 drop=0 speed=5.65x    frame=10417 fps=135 q=32.0 size=   15963kB time=00:07:14.62 bitrate= 300.9kbits/s dup=1 drop=0 speed=5.64x    frame=10458 fps=135 q=32.0 size=   16060kB time=00:07:16.33 bitrate= 301.5kbits/s dup=1 drop=0 speed=5.62x    frame=10491 fps=134 q=32.0 size=   16159kB time=00:07:17.69 bitrate= 302.4kbits/s dup=1 drop=0 speed= 5.6x    frame=10552 fps=134 q=32.0 size=   16304kB time=00:07:20.29 bitrate= 303.3kbits/s dup=1 drop=0 speed= 5.6x    frame=10640 fps=135 q=32.0 size=   16435kB time=00:07:23.92 bitrate= 303.3kbits/s dup=1 drop=0 speed=5.61x    frame=10731 fps=135 q=32.0 size=   16564kB time=00:07:27.72 bitrate= 303.1kbits/s dup=1 drop=0 speed=5.62x    frame=10817 fps=135 q=32.0 size=   16688kB time=00:07:31.30 bitrate= 302.9kbits/s dup=1 drop=0 speed=5.63x    frame=10865 fps=135 q=32.0 size=   16816kB time=00:07:33.31 bitrate= 303.9kbits/s dup=1 drop=0 speed=5.62x    frame=10942 fps=135 q=32.0 size=   16918kB time=00:07:36.51 bitrate= 303.6kbits/s dup=1 drop=0 speed=5.63x    frame=10985 fps=135 q=32.0 size=   17060kB time=00:07:38.34 bitrate= 304.9kbits/s dup=1 drop=0 speed=5.62x    frame=11079 fps=135 q=32.0 size=   17166kB time=00:07:42.23 bitrate= 304.2kbits/s dup=1 drop=0 speed=5.63x    frame=11141 fps=135 q=32.0 size=   17258kB time=00:07:44.83 bitrate= 304.1kbits/s dup=1 drop=0 speed=5.63x    frame=11208 fps=135 q=32.0 size=   17355kB time=00:07:47.60 bitrate= 304.0kbits/s dup=1 drop=0 speed=5.63x    frame=11281 fps=135 q=32.0 size=   17496kB time=00:07:50.67 bitrate= 304.5kbits/s dup=1 drop=0 speed=5.63x    frame=11360 fps=135 q=32.0 size=   17585kB time=00:07:53.96 bitrate= 303.9kbits/s dup=1 drop=0 speed=5.63x    frame=11426 fps=135 q=32.0 size=   17667kB time=00:07:56.69 bitrate= 303.6kbits/s dup=1 drop=0 speed=5.63x    frame=11481 fps=135 q=32.0 size=   17735kB time=00:07:58.99 bitrate= 303.3kbits/s dup=1 drop=0 speed=5.63x    frame=11532 fps=135 q=32.0 size=   17801kB time=00:08:01.13 bitrate= 303.1kbits/s dup=1 drop=0 speed=5.62x    frame=11560 fps=134 q=32.0 size=   17940kB time=00:08:02.28 bitrate= 304.7kbits/s dup=1 drop=0 speed=5.59x    frame=11594 fps=134 q=32.0 size=   18037kB time=00:08:03.73 bitrate= 305.5kbits/s dup=1 drop=0 speed=5.58x    frame=11631 fps=133 q=32.0 size=   18133kB time=00:08:05.27 bitrate= 306.1kbits/s dup=1 drop=0 speed=5.56x    frame=11667 fps=133 q=32.0 size=   18221kB time=00:08:06.76 bitrate= 306.7kbits/s dup=1 drop=0 speed=5.55x    frame=11720 fps=133 q=32.0 size=   18326kB time=00:08:08.98 bitrate= 307.0kbits/s dup=1 drop=0 speed=5.54x    frame=11769 fps=133 q=32.0 size=   18428kB time=00:08:11.03 bitrate= 307.4kbits/s dup=1 drop=0 speed=5.53x    frame=11834 fps=132 q=32.0 size=   18559kB time=00:08:13.71 bitrate= 307.9kbits/s dup=1 drop=0 speed=5.53x    frame=11914 fps=133 q=32.0 size=   18648kB time=00:08:17.04 bitrate= 307.4kbits/s dup=1 drop=0 speed=5.53x    frame=11978 fps=133 q=32.0 size=   18753kB time=00:08:19.73 bitrate= 307.4kbits/s dup=1 drop=0 speed=5.53x    frame=12031 fps=132 q=32.0 size=   18883kB time=00:08:21.95 bitrate= 308.2kbits/s dup=1 drop=0 speed=5.53x    frame=12073 fps=132 q=32.0 size=   19001kB time=00:08:23.70 bitrate= 309.0kbits/s dup=1 drop=0 speed=5.51x    frame=12118 fps=132 q=32.0 size=   19086kB time=00:08:25.57 bitrate= 309.3kbits/s dup=1 drop=0 speed= 5.5x    frame=12182 fps=132 q=32.0 size=   19211kB time=00:08:28.26 bitrate= 309.6kbits/s dup=1 drop=0 speed= 5.5x    frame=12277 fps=132 q=32.0 size=   19326kB time=00:08:32.19 bitrate= 309.1kbits/s dup=1 drop=0 speed=5.51x    frame=12372 fps=132 q=32.0 size=   19435kB time=00:08:36.16 bitrate= 308.4kbits/s dup=1 drop=0 speed=5.53x    frame=12461 fps=133 q=32.0 size=   19510kB time=00:08:39.87 bitrate= 307.4kbits/s dup=1 drop=0 speed=5.54x    frame=12551 fps=133 q=32.0 size=   19624kB time=00:08:43.62 bitrate= 307.0kbits/s dup=1 drop=0 speed=5.55x    frame=12644 fps=133 q=32.0 size=   19728kB time=00:08:47.51 bitrate= 306.4kbits/s dup=1 drop=0 speed=5.56x    frame=12730 fps=133 q=32.0 size=   19826kB time=00:08:51.13 bitrate= 305.8kbits/s dup=1 drop=0 speed=5.57x    frame=12816 fps=134 q=32.0 size=   19957kB time=00:08:54.67 bitrate= 305.8kbits/s dup=1 drop=0 speed=5.57x    frame=12896 fps=134 q=32.0 size=   20091kB time=00:08:58.04 bitrate= 305.9kbits/s dup=1 drop=0 speed=5.58x    frame=12988 fps=134 q=32.0 size=   20217kB time=00:09:01.88 bitrate= 305.6kbits/s dup=1 drop=0 speed=5.59x    frame=13079 fps=134 q=32.0 size=   20307kB time=00:09:05.64 bitrate= 304.9kbits/s dup=1 drop=0 speed= 5.6x    frame=13161 fps=134 q=32.0 size=   20413kB time=00:09:09.05 bitrate= 304.6kbits/s dup=1 drop=0 speed=5.61x    frame=13254 fps=135 q=32.0 size=   20535kB time=00:09:12.93 bitrate= 304.2kbits/s dup=1 drop=0 speed=5.62x    frame=13360 fps=135 q=32.0 size=   20646kB time=00:09:17.41 bitrate= 303.4kbits/s dup=1 drop=0 speed=5.63x    frame=13449 fps=135 q=32.0 size=   20731kB time=00:09:21.08 bitrate= 302.7kbits/s dup=1 drop=0 speed=5.64x    frame=13520 fps=135 q=32.0 size=   20824kB time=00:09:24.03 bitrate= 302.4kbits/s dup=1 drop=0 speed=5.64x    frame=13598 fps=135 q=32.0 size=   20912kB time=00:09:27.31 bitrate= 302.0kbits/s dup=1 drop=0 speed=5.65x    frame=13678 fps=135 q=32.0 size=   21002kB time=00:09:30.64 bitrate= 301.5kbits/s dup=1 drop=0 speed=5.65x    frame=13753 fps=136 q=32.0 size=   21120kB time=00:09:33.80 bitrate= 301.5kbits/s dup=1 drop=0 speed=5.65x    frame=13843 fps=136 q=32.0 size=   21205kB time=00:09:37.51 bitrate= 300.8kbits/s dup=1 drop=0 speed=5.66x    frame=13929 fps=136 q=32.0 size=   21279kB time=00:09:41.09 bitrate= 300.0kbits/s dup=1 drop=0 speed=5.67x    frame=13998 fps=136 q=32.0 size=   21393kB time=00:09:44.00 bitrate= 300.1kbits/s dup=1 drop=0 speed=5.67x    frame=14066 fps=136 q=32.0 size=   21530kB time=00:09:46.81 bitrate= 300.6kbits/s dup=1 drop=0 speed=5.67x    frame=14169 fps=136 q=32.0 size=   21636kB time=00:09:51.12 bitrate= 299.8kbits/s dup=1 drop=0 speed=5.68x    frame=14270 fps=137 q=32.0 size=   21722kB time=00:09:55.35 bitrate= 298.9kbits/s dup=1 drop=0 speed= 5.7x    frame=14362 fps=137 q=32.0 size=   21846kB time=00:09:59.19 bitrate= 298.7kbits/s dup=1 drop=0 speed=5.71x    frame=14429 fps=137 q=32.0 size=   21967kB time=00:10:01.96 bitrate= 299.0kbits/s dup=1 drop=0 speed= 5.7x    frame=14507 fps=137 q=32.0 size=   22082kB time=00:10:05.20 bitrate= 298.9kbits/s dup=1 drop=0 speed=5.71x    frame=14586 fps=137 q=32.0 size=   22197kB time=00:10:08.53 bitrate= 298.8kbits/s dup=1 drop=0 speed=5.71x    frame=14669 fps=137 q=32.0 size=   22297kB time=00:10:11.99 bitrate= 298.5kbits/s dup=1 drop=0 speed=5.72x    frame=14729 fps=137 q=32.0 size=   22376kB time=00:10:14.46 bitrate= 298.3kbits/s dup=1 drop=0 speed=5.71x    frame=14800 fps=137 q=32.0 size=   22485kB time=00:10:17.45 bitrate= 298.3kbits/s dup=1 drop=0 speed=5.71x    frame=14877 fps=137 q=32.0 size=   22578kB time=00:10:20.65 bitrate= 298.0kbits/s dup=1 drop=0 speed=5.72x    frame=14946 fps=137 q=32.0 size=   22719kB time=00:10:23.55 bitrate= 298.5kbits/s dup=1 drop=0 speed=5.72x    frame=15023 fps=137 q=32.0 size=   22804kB time=00:10:26.71 bitrate= 298.1kbits/s dup=1 drop=0 speed=5.72x    frame=15098 fps=137 q=32.0 size=   22884kB time=00:10:29.86 bitrate= 297.6kbits/s dup=1 drop=0 speed=5.72x    frame=15172 fps=137 q=32.0 size=   22981kB time=00:10:32.93 bitrate= 297.4kbits/s dup=1 drop=0 speed=5.72x    frame=15233 fps=137 q=32.0 size=   23059kB time=00:10:35.49 bitrate= 297.2kbits/s dup=1 drop=0 speed=5.72x    frame=15302 fps=137 q=32.0 size=   23153kB time=00:10:38.35 bitrate= 297.1kbits/s dup=1 drop=0 speed=5.72x    frame=15382 fps=137 q=32.0 size=   23256kB time=00:10:41.72 bitrate= 296.9kbits/s dup=1 drop=0 speed=5.72x    frame=15440 fps=137 q=32.0 size=   23369kB time=00:10:44.11 bitrate= 297.2kbits/s dup=1 drop=0 speed=5.72x    frame=15470 fps=137 q=32.0 size=   23477kB time=00:10:45.39 bitrate= 298.0kbits/s dup=1 drop=0 speed= 5.7x    frame=15507 fps=136 q=32.0 size=   23613kB time=00:10:46.93 bitrate= 299.0kbits/s dup=1 drop=0 speed=5.69x    frame=15536 fps=136 q=32.0 size=   23709kB time=00:10:48.12 bitrate= 299.7kbits/s dup=1 drop=0 speed=5.67x    frame=15598 fps=136 q=32.0 size=   23831kB time=00:10:50.73 bitrate= 300.0kbits/s dup=1 drop=0 speed=5.67x    frame=15651 fps=136 q=32.0 size=   23930kB time=00:10:52.95 bitrate= 300.2kbits/s dup=1 drop=0 speed=5.67x    frame=15730 fps=136 q=32.0 size=   24025kB time=00:10:56.23 bitrate= 299.9kbits/s dup=1 drop=0 speed=5.67x    frame=15787 fps=136 q=32.0 size=   24147kB time=00:10:58.62 bitrate= 300.3kbits/s dup=1 drop=0 speed=5.67x    frame=15845 fps=136 q=29.0 size=   24189kB time=00:11:01.01 bitrate= 299.8kbits/s dup=1 drop=0 speed=5.66x    frame=15912 fps=136 q=32.0 size=   24295kB time=00:11:03.83 bitrate= 299.8kbits/s dup=1 drop=0 speed=5.66x    frame=15957 fps=136 q=32.0 size=   24395kB time=00:11:05.70 bitrate= 300.2kbits/s dup=1 drop=0 speed=5.65x    frame=16004 fps=135 q=32.0 size=   24460kB time=00:11:07.67 bitrate= 300.1kbits/s dup=1 drop=0 speed=5.65x    frame=16060 fps=135 q=32.0 size=   24567kB time=00:11:09.97 bitrate= 300.4kbits/s dup=1 drop=0 speed=5.64x    frame=16135 fps=135 q=32.0 size=   24660kB time=00:11:13.13 bitrate= 300.1kbits/s dup=1 drop=0 speed=5.64x    frame=16207 fps=135 q=32.0 size=   24743kB time=00:11:16.11 bitrate= 299.8kbits/s dup=1 drop=0 speed=5.64x    frame=16258 fps=135 q=32.0 size=   24818kB time=00:11:18.25 bitrate= 299.7kbits/s dup=1 drop=0 speed=5.64x    frame=16297 fps=135 q=32.0 size=   24945kB time=00:11:19.87 bitrate= 300.6kbits/s dup=1 drop=0 speed=5.63x    frame=16345 fps=135 q=32.0 size=   25007kB time=00:11:21.87 bitrate= 300.4kbits/s dup=1 drop=0 speed=5.62x    frame=16398 fps=135 q=32.0 size=   25064kB time=00:11:24.09 bitrate= 300.1kbits/s dup=1 drop=0 speed=5.62x    frame=16443 fps=134 q=32.0 size=   25156kB time=00:11:25.97 bitrate= 300.4kbits/s dup=1 drop=0 speed=5.61x    frame=16505 fps=134 q=32.0 size=   25232kB time=00:11:28.57 bitrate= 300.2kbits/s dup=1 drop=0 speed=5.61x    frame=16566 fps=134 q=32.0 size=   25355kB time=00:11:31.09 bitrate= 300.5kbits/s dup=1 drop=0 speed= 5.6x    frame=16650 fps=134 q=32.0 size=   25462kB time=00:11:34.59 bitrate= 300.3kbits/s dup=1 drop=0 speed=5.61x    frame=16722 fps=134 q=32.0 size=   25538kB time=00:11:37.62 bitrate= 299.9kbits/s dup=1 drop=0 speed=5.61x    frame=16787 fps=134 q=32.0 size=   25632kB time=00:11:40.31 bitrate= 299.8kbits/s dup=1 drop=0 speed=5.61x    frame=16833 fps=134 q=32.0 size=   25719kB time=00:11:42.23 bitrate= 300.0kbits/s dup=1 drop=0 speed= 5.6x    frame=16898 fps=134 q=32.0 size=   25845kB time=00:11:44.96 bitrate= 300.3kbits/s dup=1 drop=0 speed= 5.6x    frame=16976 fps=134 q=32.0 size=   25918kB time=00:11:48.20 bitrate= 299.8kbits/s dup=1 drop=0 speed= 5.6x    frame=17065 fps=134 q=32.0 size=   26039kB time=00:11:51.91 bitrate= 299.6kbits/s dup=1 drop=0 speed=5.61x    frame=17152 fps=135 q=32.0 size=   26116kB time=00:11:55.54 bitrate= 299.0kbits/s dup=1 drop=0 speed=5.62x    frame=17208 fps=134 q=32.0 size=   26217kB time=00:11:57.88 bitrate= 299.2kbits/s dup=1 drop=0 speed=5.61x    frame=17306 fps=135 q=32.0 size=   26303kB time=00:12:01.98 bitrate= 298.5kbits/s dup=1 drop=0 speed=5.62x    frame=17389 fps=135 q=32.0 size=   26370kB time=00:12:05.39 bitrate= 297.8kbits/s dup=1 drop=0 speed=5.63x    frame=17445 fps=135 q=32.0 size=   26445kB time=00:12:07.74 bitrate= 297.7kbits/s dup=1 drop=0 speed=5.62x    frame=17504 fps=135 q=32.0 size=   26543kB time=00:12:10.21 bitrate= 297.8kbits/s dup=1 drop=0 speed=5.62x    frame=17553 fps=135 q=32.0 size=   26603kB time=00:12:12.26 bitrate= 297.6kbits/s dup=1 drop=0 speed=5.61x    frame=17607 fps=134 q=32.0 size=   26671kB time=00:12:14.48 bitrate= 297.5kbits/s dup=1 drop=0 speed=5.61x    frame=17668 fps=134 q=32.0 size=   26755kB time=00:12:17.04 bitrate= 297.4kbits/s dup=1 drop=0 speed=5.61x    frame=17731 fps=134 q=32.0 size=   26829kB time=00:12:19.69 bitrate= 297.1kbits/s dup=1 drop=0 speed= 5.6x    frame=17800 fps=134 q=32.0 size=   26902kB time=00:12:22.55 bitrate= 296.8kbits/s dup=1 drop=0 speed= 5.6x    frame=17898 fps=135 q=32.0 size=   26999kB time=00:12:26.64 bitrate= 296.2kbits/s dup=1 drop=0 speed=5.61x    frame=17990 fps=135 q=32.0 size=   27090kB time=00:12:30.48 bitrate= 295.7kbits/s dup=1 drop=0 speed=5.62x    frame=18045 fps=135 q=32.0 size=   27206kB time=00:12:32.79 bitrate= 296.1kbits/s dup=1 drop=0 speed=5.62x    frame=18115 fps=135 q=32.0 size=   27295kB time=00:12:35.69 bitrate= 295.9kbits/s dup=1 drop=0 speed=5.62x    frame=18156 fps=134 q=32.0 size=   27358kB time=00:12:37.39 bitrate= 295.9kbits/s dup=1 drop=0 speed=5.61x    frame=18202 fps=134 q=32.0 size=   27429kB time=00:12:39.31 bitrate= 295.9kbits/s dup=1 drop=0 speed= 5.6x    frame=18273 fps=134 q=32.0 size=   27555kB time=00:12:42.30 bitrate= 296.1kbits/s dup=1 drop=0 speed= 5.6x    frame=18358 fps=134 q=32.0 size=   27660kB time=00:12:45.84 bitrate= 295.9kbits/s dup=1 drop=0 speed=5.61x    frame=18471 fps=135 q=32.0 size=   27768kB time=00:12:50.53 bitrate= 295.2kbits/s dup=1 drop=0 speed=5.62x    frame=18568 fps=135 q=32.0 size=   27870kB time=00:12:54.59 bitrate= 294.8kbits/s dup=1 drop=0 speed=5.63x    frame=18669 fps=135 q=32.0 size=   27987kB time=00:12:58.81 bitrate= 294.4kbits/s dup=1 drop=0 speed=5.64x    frame=18748 fps=135 q=32.0 size=   28095kB time=00:13:02.10 bitrate= 294.3kbits/s dup=1 drop=0 speed=5.64x    frame=18837 fps=135 q=32.0 size=   28217kB time=00:13:05.81 bitrate= 294.2kbits/s dup=1 drop=0 speed=5.65x    frame=18917 fps=135 q=32.0 size=   28287kB time=00:13:09.18 bitrate= 293.6kbits/s dup=1 drop=0 speed=5.65x    frame=19005 fps=136 q=32.0 size=   28389kB time=00:13:12.81 bitrate= 293.3kbits/s dup=1 drop=0 speed=5.66x    frame=19056 fps=135 q=32.0 size=   28505kB time=00:13:14.94 bitrate= 293.7kbits/s dup=1 drop=0 speed=5.65x    frame=19119 fps=135 q=32.0 size=   28615kB time=00:13:17.59 bitrate= 293.9kbits/s dup=1 drop=0 speed=5.65x    frame=19179 fps=135 q=32.0 size=   28722kB time=00:13:20.10 bitrate= 294.1kbits/s dup=1 drop=0 speed=5.64x    frame=19234 fps=135 q=32.0 size=   28817kB time=00:13:22.36 bitrate= 294.2kbits/s dup=1 drop=0 speed=5.64x    frame=19290 fps=135 q=32.0 size=   28898kB time=00:13:24.71 bitrate= 294.2kbits/s dup=1 drop=0 speed=5.64x    frame=19378 fps=135 q=32.0 size=   29012kB time=00:13:28.38 bitrate= 294.0kbits/s dup=1 drop=0 speed=5.64x    frame=19417 fps=135 q=32.0 size=   29096kB time=00:13:30.00 bitrate= 294.3kbits/s dup=1 drop=0 speed=5.63x    frame=19476 fps=135 q=32.0 size=   29201kB time=00:13:32.48 bitrate= 294.4kbits/s dup=1 drop=0 speed=5.63x    frame=19517 fps=135 q=32.0 size=   29279kB time=00:13:34.18 bitrate= 294.6kbits/s dup=1 drop=0 speed=5.62x    frame=19569 fps=135 q=32.0 size=   29377kB time=00:13:36.36 bitrate= 294.8kbits/s dup=1 drop=0 speed=5.62x    frame=19613 fps=134 q=32.0 size=   29454kB time=00:13:38.19 bitrate= 294.9kbits/s dup=1 drop=0 speed=5.61x    frame=19661 fps=134 q=32.0 size=   29545kB time=00:13:40.16 bitrate= 295.1kbits/s dup=1 drop=0 speed= 5.6x    frame=19722 fps=134 q=32.0 size=   29640kB time=00:13:42.72 bitrate= 295.1kbits/s dup=1 drop=0 speed= 5.6x    frame=19789 fps=134 q=32.0 size=   29698kB time=00:13:45.53 bitrate= 294.7kbits/s dup=1 drop=0 speed= 5.6x    frame=19868 fps=134 q=32.0 size=   29772kB time=00:13:48.82 bitrate= 294.3kbits/s dup=1 drop=0 speed= 5.6x    frame=19925 fps=134 q=32.0 size=   29848kB time=00:13:51.21 bitrate= 294.2kbits/s dup=1 drop=0 speed= 5.6x    frame=19989 fps=134 q=32.0 size=   29970kB time=00:13:53.89 bitrate= 294.4kbits/s dup=1 drop=0 speed= 5.6x    frame=20058 fps=134 q=32.0 size=   30089kB time=00:13:56.71 bitrate= 294.6kbits/s dup=1 drop=0 speed= 5.6x    frame=20115 fps=134 q=32.0 size=   30241kB time=00:13:59.10 bitrate= 295.2kbits/s dup=1 drop=0 speed= 5.6x    frame=20177 fps=134 q=32.0 size=   30368kB time=00:14:01.70 bitrate= 295.6kbits/s dup=1 drop=0 speed=5.59x    frame=20254 fps=134 q=32.0 size=   30443kB time=00:14:04.90 bitrate= 295.2kbits/s dup=1 drop=0 speed= 5.6x    frame=20334 fps=134 q=32.0 size=   30546kB time=00:14:08.23 bitrate= 295.0kbits/s dup=1 drop=0 speed= 5.6x    frame=20412 fps=134 q=32.0 size=   30657kB time=00:14:11.52 bitrate= 294.9kbits/s dup=1 drop=0 speed= 5.6x    frame=20493 fps=134 q=32.0 size=   30726kB time=00:14:14.89 bitrate= 294.4kbits/s dup=1 drop=0 speed=5.61x    frame=20544 fps=134 q=32.0 size=   30820kB time=00:14:17.02 bitrate= 294.6kbits/s dup=1 drop=0 speed= 5.6x    frame=20593 fps=134 q=32.0 size=   30926kB time=00:14:19.07 bitrate= 294.9kbits/s dup=1 drop=0 speed= 5.6x    frame=20640 fps=134 q=32.0 size=   31036kB time=00:14:21.03 bitrate= 295.3kbits/s dup=1 drop=0 speed=5.59x    frame=20713 fps=134 q=32.0 size=   31102kB time=00:14:24.06 bitrate= 294.9kbits/s dup=1 drop=0 speed=5.59x    frame=20756 fps=134 q=32.0 size=   31249kB time=00:14:25.85 bitrate= 295.7kbits/s dup=1 drop=0 speed=5.58x    frame=20787 fps=134 q=32.0 size=   31398kB time=00:14:27.13 bitrate= 296.6kbits/s dup=1 drop=0 speed=5.57x    frame=20823 fps=133 q=32.0 size=   31526kB time=00:14:28.67 bitrate= 297.3kbits/s dup=1 drop=0 speed=5.57x    frame=20895 fps=133 q=32.0 size=   31673kB time=00:14:31.65 bitrate= 297.7kbits/s dup=1 drop=0 speed=5.57x    frame=20981 fps=134 q=32.0 size=   31758kB time=00:14:35.24 bitrate= 297.2kbits/s dup=1 drop=0 speed=5.57x    frame=21056 fps=134 q=32.0 size=   31831kB time=00:14:38.35 bitrate= 296.9kbits/s dup=1 drop=0 speed=5.57x    frame=21103 fps=133 q=32.0 size=   31954kB time=00:14:40.32 bitrate= 297.4kbits/s dup=1 drop=0 speed=5.57x    frame=21153 fps=133 q=32.0 size=   32077kB time=00:14:42.41 bitrate= 297.8kbits/s dup=1 drop=0 speed=5.56x    frame=21196 fps=133 q=32.0 size=   32167kB time=00:14:44.20 bitrate= 298.0kbits/s dup=1 drop=0 speed=5.56x    frame=21263 fps=133 q=32.0 size=   32257kB time=00:14:46.97 bitrate= 297.9kbits/s dup=1 drop=0 speed=5.56x    frame=21365 fps=133 q=32.0 size=   32378kB time=00:14:51.24 bitrate= 297.6kbits/s dup=1 drop=0 speed=5.56x    frame=21453 fps=133 q=32.0 size=   32482kB time=00:14:54.95 bitrate= 297.3kbits/s dup=1 drop=0 speed=5.57x    frame=21545 fps=134 q=32.0 size=   32569kB time=00:14:58.79 bitrate= 296.8kbits/s dup=1 drop=0 speed=5.58x    frame=21626 fps=134 q=32.0 size=   32664kB time=00:15:02.12 bitrate= 296.6kbits/s dup=1 drop=0 speed=5.58x    frame=21686 fps=134 q=32.0 size=   32748kB time=00:15:04.64 bitrate= 296.5kbits/s dup=1 drop=0 speed=5.58x    frame=21748 fps=134 q=32.0 size=   32829kB time=00:15:07.24 bitrate= 296.4kbits/s dup=1 drop=0 speed=5.57x    frame=21816 fps=134 q=32.0 size=   32929kB time=00:15:10.05 bitrate= 296.4kbits/s dup=1 drop=0 speed=5.58x    frame=21883 fps=134 q=32.0 size=   33007kB time=00:15:12.87 bitrate= 296.2kbits/s dup=1 drop=0 speed=5.57x    frame=21959 fps=134 q=32.0 size=   33110kB time=00:15:16.03 bitrate= 296.1kbits/s dup=1 drop=0 speed=5.58x    frame=22040 fps=134 q=32.0 size=   33206kB time=00:15:19.40 bitrate= 295.9kbits/s dup=1 drop=0 speed=5.58x    frame=22135 fps=134 q=32.0 size=   33308kB time=00:15:23.37 bitrate= 295.5kbits/s dup=1 drop=0 speed=5.59x    frame=22232 fps=134 q=32.0 size=   33383kB time=00:15:27.42 bitrate= 294.9kbits/s dup=1 drop=0 speed=5.59x    frame=22327 fps=134 q=32.0 size=   33478kB time=00:15:31.39 bitrate= 294.4kbits/s dup=1 drop=0 speed= 5.6x    frame=22403 fps=134 q=32.0 size=   33587kB time=00:15:34.55 bitrate= 294.4kbits/s dup=1 drop=0 speed= 5.6x    frame=22475 fps=134 q=32.0 size=   33644kB time=00:15:37.53 bitrate= 294.0kbits/s dup=1 drop=0 speed= 5.6x    frame=22531 fps=134 q=32.0 size=   33800kB time=00:15:39.88 bitrate= 294.6kbits/s dup=1 drop=0 speed= 5.6x    frame=22600 fps=134 q=32.0 size=   33931kB time=00:15:42.78 bitrate= 294.8kbits/s dup=1 drop=0 speed= 5.6x    frame=22674 fps=134 q=32.0 size=   34047kB time=00:15:45.85 bitrate= 294.9kbits/s dup=1 drop=0 speed= 5.6x    frame=22749 fps=134 q=32.0 size=   34108kB time=00:15:48.97 bitrate= 294.4kbits/s dup=1 drop=0 speed= 5.6x    frame=22799 fps=134 q=32.0 size=   34237kB time=00:15:51.06 bitrate= 294.9kbits/s dup=1 drop=0 speed= 5.6x    frame=22858 fps=134 q=32.0 size=   34378kB time=00:15:53.53 bitrate= 295.3kbits/s dup=1 drop=0 speed=5.59x    frame=22915 fps=134 q=32.0 size=   34525kB time=00:15:55.88 bitrate= 295.9kbits/s dup=1 drop=0 speed=5.59x    frame=22982 fps=134 q=32.0 size=   34621kB time=00:15:58.69 bitrate= 295.8kbits/s dup=1 drop=0 speed=5.59x    frame=23025 fps=134 q=32.0 size=   34718kB time=00:16:00.49 bitrate= 296.1kbits/s dup=1 drop=0 speed=5.59x    frame=23096 fps=134 q=32.0 size=   34812kB time=00:16:03.43 bitrate= 296.0kbits/s dup=1 drop=0 speed=5.59x    frame=23155 fps=134 q=32.0 size=   34906kB time=00:16:05.91 bitrate= 296.0kbits/s dup=1 drop=0 speed=5.58x    frame=23207 fps=134 q=32.0 size=   34977kB time=00:16:08.04 bitrate= 296.0kbits/s dup=1 drop=0 speed=5.58x    frame=23253 fps=134 q=32.0 size=   35045kB time=00:16:10.00 bitrate= 296.0kbits/s dup=1 drop=0 speed=5.58x    frame=23332 fps=134 q=32.0 size=   35169kB time=00:16:13.29 bitrate= 296.0kbits/s dup=1 drop=0 speed=5.58x    frame=23406 fps=134 q=32.0 size=   35243kB time=00:16:16.40 bitrate= 295.7kbits/s dup=1 drop=0 speed=5.58x    frame=23482 fps=134 q=32.0 size=   35313kB time=00:16:19.56 bitrate= 295.3kbits/s dup=1 drop=0 speed=5.58x    frame=23542 fps=134 q=32.0 size=   35409kB time=00:16:22.03 bitrate= 295.4kbits/s dup=1 drop=0 speed=5.58x    frame=23616 fps=134 q=32.0 size=   35531kB time=00:16:25.15 bitrate= 295.5kbits/s dup=1 drop=0 speed=5.58x    frame=23715 fps=134 q=32.0 size=   35659kB time=00:16:29.29 bitrate= 295.3kbits/s dup=1 drop=0 speed=5.59x    frame=23818 fps=134 q=32.0 size=   35747kB time=00:16:33.55 bitrate= 294.7kbits/s dup=1 drop=0 speed= 5.6x    frame=23910 fps=134 q=32.0 size=   35861kB time=00:16:37.39 bitrate= 294.5kbits/s dup=1 drop=0 speed= 5.6x    frame=24000 fps=134 q=32.0 size=   35946kB time=00:16:41.15 bitrate= 294.1kbits/s dup=1 drop=0 speed=5.61x    frame=24074 fps=134 q=32.0 size=   36048kB time=00:16:44.26 bitrate= 294.0kbits/s dup=1 drop=0 speed=5.61x    frame=24159 fps=135 q=32.0 size=   36137kB time=00:16:47.76 bitrate= 293.8kbits/s dup=1 drop=0 speed=5.61x    frame=24239 fps=135 q=32.0 size=   36220kB time=00:16:51.13 bitrate= 293.4kbits/s dup=1 drop=0 speed=5.62x    frame=24319 fps=135 q=32.0 size=   36277kB time=00:16:54.46 bitrate= 292.9kbits/s dup=1 drop=0 speed=5.62x    frame=24360 fps=135 q=32.0 size=   36373kB time=00:16:56.17 bitrate= 293.2kbits/s dup=1 drop=0 speed=5.61x    frame=24422 fps=135 q=32.0 size=   36458kB time=00:16:58.73 bitrate= 293.2kbits/s dup=1 drop=0 speed=5.61x    frame=24479 fps=134 q=32.0 size=   36520kB time=00:17:01.12 bitrate= 293.0kbits/s dup=1 drop=0 speed=5.61x    frame=24535 fps=134 q=32.0 size=   36579kB time=00:17:03.46 bitrate= 292.8kbits/s dup=1 drop=0 speed=5.61x    frame=24585 fps=134 q=32.0 size=   36645kB time=00:17:05.55 bitrate= 292.7kbits/s dup=1 drop=0 speed= 5.6x    frame=24671 fps=134 q=32.0 size=   36764kB time=00:17:09.18 bitrate= 292.6kbits/s dup=1 drop=0 speed=5.61x    frame=24757 fps=135 q=32.0 size=   36825kB time=00:17:12.72 bitrate= 292.1kbits/s dup=1 drop=0 speed=5.61x    frame=24819 fps=134 q=32.0 size=   36898kB time=00:17:15.32 bitrate= 292.0kbits/s dup=1 drop=0 speed=5.61x    frame=24886 fps=134 q=32.0 size=   37000kB time=00:17:18.10 bitrate= 292.0kbits/s dup=1 drop=0 speed=5.61x    frame=24955 fps=134 q=32.0 size=   37072kB time=00:17:21.00 bitrate= 291.7kbits/s dup=1 drop=0 speed=5.61x    frame=25035 fps=135 q=32.0 size=   37148kB time=00:17:24.33 bitrate= 291.4kbits/s dup=1 drop=0 speed=5.61x    frame=25135 fps=135 q=32.0 size=   37224kB time=00:17:28.47 bitrate= 290.8kbits/s dup=1 drop=0 speed=5.62x    frame=25234 fps=135 q=32.0 size=   37309kB time=00:17:32.60 bitrate= 290.4kbits/s dup=1 drop=0 speed=5.63x    frame=25311 fps=135 q=32.0 size=   37386kB time=00:17:35.85 bitrate= 290.1kbits/s dup=1 drop=0 speed=5.63x    frame=25378 fps=135 q=32.0 size=   37455kB time=00:17:38.62 bitrate= 289.8kbits/s dup=1 drop=0 speed=5.63x    frame=25460 fps=135 q=32.0 size=   37535kB time=00:17:42.03 bitrate= 289.5kbits/s dup=1 drop=0 speed=5.63x    frame=25568 fps=135 q=32.0 size=   37609kB time=00:17:46.56 bitrate= 288.9kbits/s dup=1 drop=0 speed=5.64x    frame=25607 fps=135 q=32.0 size=   37730kB time=00:17:48.18 bitrate= 289.4kbits/s dup=1 drop=0 speed=5.63x    frame=25683 fps=135 q=32.0 size=   37836kB time=00:17:51.33 bitrate= 289.3kbits/s dup=1 drop=0 speed=5.63x    frame=25764 fps=135 q=32.0 size=   37923kB time=00:17:54.75 bitrate= 289.1kbits/s dup=1 drop=0 speed=5.64x    frame=25836 fps=135 q=32.0 size=   37987kB time=00:17:57.73 bitrate= 288.7kbits/s dup=1 drop=0 speed=5.64x    frame=25883 fps=135 q=32.0 size=   38079kB time=00:17:59.70 bitrate= 288.9kbits/s dup=1 drop=0 speed=5.63x    frame=25954 fps=135 q=32.0 size=   38197kB time=00:18:02.64 bitrate= 289.0kbits/s dup=1 drop=0 speed=5.63x    frame=26031 fps=135 q=32.0 size=   38276kB time=00:18:05.88 bitrate= 288.8kbits/s dup=1 drop=0 speed=5.63x    frame=26127 fps=135 q=32.0 size=   38435kB time=00:18:09.85 bitrate= 288.9kbits/s dup=1 drop=0 speed=5.64x    frame=26211 fps=135 q=32.0 size=   38523kB time=00:18:13.35 bitrate= 288.6kbits/s dup=1 drop=0 speed=5.64x    frame=26269 fps=135 q=32.0 size=   38636kB time=00:18:15.78 bitrate= 288.8kbits/s dup=1 drop=0 speed=5.64x    frame=26372 fps=135 q=32.0 size=   38749kB time=00:18:20.09 bitrate= 288.5kbits/s dup=1 drop=0 speed=5.65x    frame=26503 fps=136 q=29.0 size=   38832kB time=00:18:25.55 bitrate= 287.7kbits/s dup=1 drop=0 speed=5.66x    frame=26617 fps=136 q=32.0 size=   38944kB time=00:18:30.29 bitrate= 287.3kbits/s dup=1 drop=0 speed=5.67x    frame=26711 fps=136 q=32.0 size=   39050kB time=00:18:34.21 bitrate= 287.1kbits/s dup=1 drop=0 speed=5.68x    frame=26813 fps=136 q=32.0 size=   39121kB time=00:18:38.48 bitrate= 286.5kbits/s dup=1 drop=0 speed=5.68x    frame=26911 fps=136 q=32.0 size=   39239kB time=00:18:42.58 bitrate= 286.3kbits/s dup=1 drop=0 speed=5.69x    frame=27009 fps=137 q=32.0 size=   39343kB time=00:18:46.63 bitrate= 286.1kbits/s dup=1 drop=0 speed= 5.7x    frame=27110 fps=137 q=32.0 size=   39411kB time=00:18:50.85 bitrate= 285.5kbits/s dup=1 drop=0 speed= 5.7x    frame=27202 fps=137 q=32.0 size=   39506kB time=00:18:54.69 bitrate= 285.2kbits/s dup=1 drop=0 speed=5.71x    frame=27257 fps=137 q=32.0 size=   39576kB time=00:18:57.00 bitrate= 285.1kbits/s dup=1 drop=0 speed=5.71x    frame=27323 fps=137 q=32.0 size=   39652kB time=00:18:59.77 bitrate= 285.0kbits/s dup=1 drop=0 speed= 5.7x    frame=27408 fps=137 q=32.0 size=   39775kB time=00:19:03.31 bitrate= 285.0kbits/s dup=1 drop=0 speed=5.71x    frame=27507 fps=137 q=32.0 size=   39851kB time=00:19:07.45 bitrate= 284.5kbits/s dup=1 drop=0 speed=5.71x    frame=27586 fps=137 q=32.0 size=   39914kB time=00:19:10.74 bitrate= 284.1kbits/s dup=1 drop=0 speed=5.72x    frame=27663 fps=137 q=32.0 size=   39982kB time=00:19:13.94 bitrate= 283.8kbits/s dup=1 drop=0 speed=5.72x    frame=27731 fps=137 q=32.0 size=   40046kB time=00:19:16.75 bitrate= 283.6kbits/s dup=1 drop=0 speed=5.72x    frame=27797 fps=137 q=32.0 size=   40134kB time=00:19:19.53 bitrate= 283.5kbits/s dup=1 drop=0 speed=5.72x    frame=27881 fps=137 q=32.0 size=   40256kB time=00:19:23.03 bitrate= 283.5kbits/s dup=1 drop=0 speed=5.72x    frame=27986 fps=137 q=32.0 size=   40347kB time=00:19:27.42 bitrate= 283.1kbits/s dup=1 drop=0 speed=5.73x    frame=28078 fps=137 q=32.0 size=   40423kB time=00:19:31.26 bitrate= 282.7kbits/s dup=1 drop=0 speed=5.73x    frame=28183 fps=138 q=32.0 size=   40500kB time=00:19:35.61 bitrate= 282.2kbits/s dup=1 drop=0 speed=5.74x    frame=28272 fps=138 q=32.0 size=   40584kB time=00:19:39.32 bitrate= 281.9kbits/s dup=1 drop=0 speed=5.74x    frame=28329 fps=138 q=32.0 size=   40722kB time=00:19:41.71 bitrate= 282.3kbits/s dup=1 drop=0 speed=5.74x    frame=28398 fps=138 q=32.0 size=   40821kB time=00:19:44.57 bitrate= 282.3kbits/s dup=1 drop=0 speed=5.74x    frame=28450 fps=137 q=32.0 size=   40947kB time=00:19:46.75 bitrate= 282.7kbits/s dup=1 drop=0 speed=5.74x    frame=28534 fps=138 q=32.0 size=   41079kB time=00:19:50.25 bitrate= 282.7kbits/s dup=1 drop=0 speed=5.74x    frame=28625 fps=138 q=32.0 size=   41153kB time=00:19:54.04 bitrate= 282.3kbits/s dup=1 drop=0 speed=5.74x    frame=28702 fps=138 q=32.0 size=   41224kB time=00:19:57.24 bitrate= 282.1kbits/s dup=1 drop=0 speed=5.74x    frame=28751 fps=138 q=32.0 size=   41339kB time=00:19:59.29 bitrate= 282.4kbits/s dup=1 drop=0 speed=5.74x    frame=28801 fps=138 q=32.0 size=   41426kB time=00:20:01.38 bitrate= 282.5kbits/s dup=1 drop=0 speed=5.74x    frame=28853 fps=137 q=32.0 size=   41535kB time=00:20:03.56 bitrate= 282.7kbits/s dup=1 drop=0 speed=5.73x    frame=28896 fps=137 q=32.0 size=   41660kB time=00:20:05.35 bitrate= 283.1kbits/s dup=1 drop=0 speed=5.73x    frame=28969 fps=137 q=32.0 size=   41780kB time=00:20:08.38 bitrate= 283.2kbits/s dup=1 drop=0 speed=5.73x    frame=29045 fps=137 q=32.0 size=   41880kB time=00:20:11.58 bitrate= 283.2kbits/s dup=1 drop=0 speed=5.73x    frame=29094 fps=137 q=32.0 size=   41950kB time=00:20:13.63 bitrate= 283.2kbits/s dup=1 drop=0 speed=5.73x    frame=29183 fps=137 q=32.0 size=   42063kB time=00:20:17.34 bitrate= 283.1kbits/s dup=1 drop=0 speed=5.73x    frame=29283 fps=137 q=32.0 size=   42120kB time=00:20:21.48 bitrate= 282.5kbits/s dup=1 drop=0 speed=5.74x    frame=29354 fps=138 q=32.0 size=   42229kB time=00:20:24.47 bitrate= 282.5kbits/s dup=1 drop=0 speed=5.74x    frame=29411 fps=137 q=32.0 size=   42290kB time=00:20:26.81 bitrate= 282.4kbits/s dup=1 drop=0 speed=5.73x    frame=29471 fps=137 q=32.0 size=   42351kB time=00:20:29.33 bitrate= 282.2kbits/s dup=1 drop=0 speed=5.73x    frame=29527 fps=137 q=32.0 size=   42419kB time=00:20:31.72 bitrate= 282.1kbits/s dup=1 drop=0 speed=5.73x    frame=29588 fps=137 q=32.0 size=   42508kB time=00:20:34.24 bitrate= 282.1kbits/s dup=1 drop=0 speed=5.73x    frame=29641 fps=137 q=32.0 size=   42572kB time=00:20:36.41 bitrate= 282.1kbits/s dup=1 drop=0 speed=5.72x    frame=29705 fps=137 q=32.0 size=   42653kB time=00:20:39.10 bitrate= 282.0kbits/s dup=1 drop=0 speed=5.72x    frame=29743 fps=137 q=32.0 size=   42735kB time=00:20:40.68 bitrate= 282.2kbits/s dup=1 drop=0 speed=5.72x    frame=29780 fps=137 q=32.0 size=   42812kB time=00:20:42.21 bitrate= 282.3kbits/s dup=1 drop=0 speed=5.71x    frame=29848 fps=137 q=32.0 size=   42896kB time=00:20:45.07 bitrate= 282.2kbits/s dup=1 drop=0 speed=5.71x    frame=29927 fps=137 q=32.0 size=   42989kB time=00:20:48.36 bitrate= 282.1kbits/s dup=1 drop=0 speed=5.71x    frame=30000 fps=137 q=32.0 size=   43081kB time=00:20:51.39 bitrate= 282.0kbits/s dup=1 drop=0 speed=5.71x    frame=30059 fps=137 q=32.0 size=   43172kB time=00:20:53.86 bitrate= 282.1kbits/s dup=1 drop=0 speed=5.71x    frame=30137 fps=137 q=32.0 size=   43300kB time=00:20:57.11 bitrate= 282.2kbits/s dup=1 drop=0 speed=5.71x    frame=30223 fps=137 q=32.0 size=   43409kB time=00:21:00.69 bitrate= 282.1kbits/s dup=1 drop=0 speed=5.72x    frame=30290 fps=137 q=32.0 size=   43468kB time=00:21:03.51 bitrate= 281.8kbits/s dup=1 drop=0 speed=5.71x    frame=30321 fps=137 q=32.0 size=   43583kB time=00:21:04.79 bitrate= 282.3kbits/s dup=1 drop=0 speed=5.71x    frame=30388 fps=137 q=32.0 size=   43758kB time=00:21:07.56 bitrate= 282.8kbits/s dup=1 drop=0 speed=5.71x    frame=30458 fps=137 q=32.0 size=   43844kB time=00:21:10.50 bitrate= 282.7kbits/s dup=1 drop=0 speed= 5.7x    frame=30497 fps=137 q=32.0 size=   43937kB time=00:21:12.12 bitrate= 282.9kbits/s dup=1 drop=0 speed= 5.7x    frame=30539 fps=137 q=32.0 size=   44053kB time=00:21:13.87 bitrate= 283.3kbits/s dup=1 drop=0 speed=5.69x    frame=30590 fps=136 q=32.0 size=   44157kB time=00:21:16.01 bitrate= 283.5kbits/s dup=1 drop=0 speed=5.69x    frame=30684 fps=137 q=32.0 size=   44295kB time=00:21:19.93 bitrate= 283.5kbits/s dup=1 drop=0 speed= 5.7x    frame=30750 fps=137 q=32.0 size=   44383kB time=00:21:22.66 bitrate= 283.5kbits/s dup=1 drop=0 speed=5.69x    frame=30805 fps=136 q=32.0 size=   44549kB time=00:21:24.97 bitrate= 284.0kbits/s dup=1 drop=0 speed=5.69x    frame=30854 fps=136 q=32.0 size=   44704kB time=00:21:27.01 bitrate= 284.5kbits/s dup=1 drop=0 speed=5.69x    frame=30918 fps=136 q=32.0 size=   44827kB time=00:21:29.70 bitrate= 284.7kbits/s dup=1 drop=0 speed=5.69x    frame=30976 fps=136 q=32.0 size=   44943kB time=00:21:32.09 bitrate= 284.9kbits/s dup=1 drop=0 speed=5.68x    frame=31000 fps=136 q=32.0 size=   45047kB time=00:21:33.12 bitrate= 285.4kbits/s dup=1 drop=0 speed=5.68x    frame=31050 fps=136 q=32.0 size=   45169kB time=00:21:35.21 bitrate= 285.7kbits/s dup=1 drop=0 speed=5.67x    frame=31094 fps=136 q=32.0 size=   45296kB time=00:21:37.04 bitrate= 286.1kbits/s dup=1 drop=0 speed=5.67x    frame=31132 fps=136 q=32.0 size=   45433kB time=00:21:38.62 bitrate= 286.6kbits/s dup=1 drop=0 speed=5.66x    frame=31169 fps=136 q=32.0 size=   45592kB time=00:21:40.16 bitrate= 287.3kbits/s dup=1 drop=0 speed=5.65x    frame=31247 fps=136 q=32.0 size=   45700kB time=00:21:43.40 bitrate= 287.2kbits/s dup=1 drop=0 speed=5.66x    frame=31291 fps=136 q=32.0 size=   45799kB time=00:21:45.28 bitrate= 287.4kbits/s dup=1 drop=0 speed=5.65x    frame=31336 fps=135 q=32.0 size=   45902kB time=00:21:47.11 bitrate= 287.7kbits/s dup=1 drop=0 speed=5.65x    frame=31376 fps=135 q=32.0 size=   46006kB time=00:21:48.77 bitrate= 288.0kbits/s dup=1 drop=0 speed=5.64x    frame=31420 fps=135 q=32.0 size=   46118kB time=00:21:50.65 bitrate= 288.2kbits/s dup=1 drop=0 speed=5.64x    frame=31470 fps=135 q=32.0 size=   46270kB time=00:21:52.74 bitrate= 288.7kbits/s dup=1 drop=0 speed=5.64x    frame=31518 fps=135 q=32.0 size=   46369kB time=00:21:54.71 bitrate= 288.9kbits/s dup=1 drop=0 speed=5.63x    frame=31574 fps=135 q=32.0 size=   46483kB time=00:21:57.05 bitrate= 289.1kbits/s dup=1 drop=0 speed=5.63x    frame=31644 fps=135 q=32.0 size=   46619kB time=00:21:59.95 bitrate= 289.3kbits/s dup=1 drop=0 speed=5.63x    frame=31693 fps=135 q=32.0 size=   46736kB time=00:22:02.00 bitrate= 289.6kbits/s dup=1 drop=0 speed=5.63x    frame=31742 fps=135 q=32.0 size=   46865kB time=00:22:04.09 bitrate= 289.9kbits/s dup=1 drop=0 speed=5.62x    frame=31793 fps=135 q=32.0 size=   46975kB time=00:22:06.18 bitrate= 290.2kbits/s dup=1 drop=0 speed=5.62x    frame=31856 fps=135 q=32.0 size=   47122kB time=00:22:08.83 bitrate= 290.5kbits/s dup=1 drop=0 speed=5.62x    frame=31922 fps=135 q=32.0 size=   47233kB time=00:22:11.56 bitrate= 290.6kbits/s dup=1 drop=0 speed=5.62x    frame=31985 fps=135 q=32.0 size=   47343kB time=00:22:14.20 bitrate= 290.7kbits/s dup=1 drop=0 speed=5.62x    frame=32031 fps=135 q=32.0 size=   47455kB time=00:22:16.12 bitrate= 291.0kbits/s dup=1 drop=0 speed=5.61x    frame=32102 fps=135 q=32.0 size=   47579kB time=00:22:19.07 bitrate= 291.1kbits/s dup=1 drop=0 speed=5.61x    frame=32154 fps=134 q=32.0 size=   47689kB time=00:22:21.24 bitrate= 291.3kbits/s dup=1 drop=0 speed=5.61x    frame=32201 fps=134 q=32.0 size=   47779kB time=00:22:23.21 bitrate= 291.4kbits/s dup=1 drop=0 speed= 5.6x    frame=32249 fps=134 q=32.0 size=   47929kB time=00:22:25.21 bitrate= 291.9kbits/s dup=1 drop=0 speed= 5.6x    frame=32288 fps=134 q=32.0 size=   48047kB time=00:22:26.83 bitrate= 292.2kbits/s dup=1 drop=0 speed=5.59x    frame=32338 fps=134 q=32.0 size=   48161kB time=00:22:28.92 bitrate= 292.5kbits/s dup=1 drop=0 speed=5.59x    frame=32390 fps=134 q=32.0 size=   48269kB time=00:22:31.10 bitrate= 292.7kbits/s dup=1 drop=0 speed=5.59x    frame=32434 fps=134 q=32.0 size=   48425kB time=00:22:32.93 bitrate= 293.2kbits/s dup=1 drop=0 speed=5.58x    frame=32473 fps=134 q=32.0 size=   48576kB time=00:22:34.56 bitrate= 293.8kbits/s dup=1 drop=0 speed=5.58x    frame=32518 fps=134 q=32.0 size=   48679kB time=00:22:36.43 bitrate= 294.0kbits/s dup=1 drop=0 speed=5.57x    frame=32558 fps=134 q=32.0 size=   48778kB time=00:22:38.10 bitrate= 294.2kbits/s dup=1 drop=0 speed=5.57x    frame=32600 fps=133 q=32.0 size=   48907kB time=00:22:39.85 bitrate= 294.6kbits/s dup=1 drop=0 speed=5.56x    frame=32636 fps=133 q=32.0 size=   49031kB time=00:22:41.34 bitrate= 295.0kbits/s dup=1 drop=0 speed=5.56x    frame=32685 fps=133 q=32.0 size=   49098kB time=00:22:43.39 bitrate= 295.0kbits/s dup=1 drop=0 speed=5.56x    frame=32721 fps=133 q=32.0 size=   49191kB time=00:22:44.88 bitrate= 295.2kbits/s dup=1 drop=0 speed=5.55x    frame=32763 fps=133 q=32.0 size=   49306kB time=00:22:46.63 bitrate= 295.6kbits/s dup=1 drop=0 speed=5.54x    frame=32801 fps=133 q=32.0 size=   49396kB time=00:22:48.25 bitrate= 295.7kbits/s dup=1 drop=0 speed=5.54x    frame=32862 fps=133 q=32.0 size=   49525kB time=00:22:50.77 bitrate= 296.0kbits/s dup=1 drop=0 speed=5.54x    frame=32904 fps=133 q=32.0 size=   49590kB time=00:22:52.52 bitrate= 296.0kbits/s dup=1 drop=0 speed=5.53x    frame=32946 fps=133 q=32.0 size=   49653kB time=00:22:54.27 bitrate= 296.0kbits/s dup=1 drop=0 speed=5.53x    frame=32991 fps=132 q=32.0 size=   49726kB time=00:22:56.15 bitrate= 296.0kbits/s dup=1 drop=0 speed=5.52x    frame=33032 fps=132 q=32.0 size=   49802kB time=00:22:57.85 bitrate= 296.1kbits/s dup=1 drop=0 speed=5.52x    frame=33070 fps=132 q=32.0 size=   49884kB time=00:22:59.43 bitrate= 296.2kbits/s dup=1 drop=0 speed=5.51x    frame=33118 fps=132 q=32.0 size=   49994kB time=00:23:01.48 bitrate= 296.5kbits/s dup=1 drop=0 speed=5.51x    frame=33178 fps=132 q=32.0 size=   50071kB time=00:23:03.95 bitrate= 296.4kbits/s dup=1 drop=0 speed=5.51x    frame=33258 fps=132 q=32.0 size=   50164kB time=00:23:07.32 bitrate= 296.2kbits/s dup=1 drop=0 speed=5.51x    frame=33305 fps=132 q=32.0 size=   50261kB time=00:23:09.24 bitrate= 296.4kbits/s dup=1 drop=0 speed=5.51x    frame=33350 fps=132 q=32.0 size=   50352kB time=00:23:11.12 bitrate= 296.5kbits/s dup=1 drop=0 speed= 5.5x    frame=33397 fps=132 q=32.0 size=   50432kB time=00:23:13.08 bitrate= 296.6kbits/s dup=1 drop=0 speed= 5.5x    frame=33446 fps=132 q=32.0 size=   50511kB time=00:23:15.13 bitrate= 296.6kbits/s dup=1 drop=0 speed= 5.5x    frame=33507 fps=132 q=32.0 size=   50624kB time=00:23:17.69 bitrate= 296.7kbits/s dup=1 drop=0 speed= 5.5x    frame=33563 fps=132 q=32.0 size=   50692kB time=00:23:20.00 bitrate= 296.6kbits/s dup=1 drop=0 speed= 5.5x    frame=33627 fps=132 q=32.0 size=   50791kB time=00:23:22.68 bitrate= 296.6kbits/s dup=1 drop=0 speed= 5.5x    frame=33695 fps=132 q=32.0 size=   50864kB time=00:23:25.50 bitrate= 296.5kbits/s dup=1 drop=0 speed= 5.5x    frame=33758 fps=132 q=32.0 size=   50949kB time=00:23:28.15 bitrate= 296.4kbits/s dup=1 drop=0 speed=5.49x    frame=33849 fps=132 q=32.0 size=   51036kB time=00:23:31.94 bitrate= 296.1kbits/s dup=1 drop=0 speed= 5.5x    frame=33922 fps=132 q=32.0 size=   51130kB time=00:23:34.97 bitrate= 296.0kbits/s dup=1 drop=0 speed= 5.5x    frame=33981 fps=132 q=32.0 size=   51203kB time=00:23:37.45 bitrate= 295.9kbits/s dup=1 drop=0 speed= 5.5x    frame=34034 fps=132 q=32.0 size=   51306kB time=00:23:39.67 bitrate= 296.1kbits/s dup=1 drop=0 speed= 5.5x    frame=34081 fps=132 q=32.0 size=   51385kB time=00:23:41.59 bitrate= 296.1kbits/s dup=1 drop=0 speed=5.49x    frame=34128 fps=132 q=32.0 size=   51465kB time=00:23:43.59 bitrate= 296.2kbits/s dup=1 drop=0 speed=5.49x    frame=34175 fps=132 q=32.0 size=   51541kB time=00:23:45.55 bitrate= 296.2kbits/s dup=1 drop=0 speed=5.49x    frame=34240 fps=131 q=32.0 size=   51637kB time=00:23:48.24 bitrate= 296.2kbits/s dup=1 drop=0 speed=5.48x    frame=34293 fps=131 q=32.0 size=   51720kB time=00:23:50.46 bitrate= 296.2kbits/s dup=1 drop=0 speed=5.48x    frame=34335 fps=131 q=32.0 size=   51829kB time=00:23:52.21 bitrate= 296.4kbits/s dup=1 drop=0 speed=5.48x    frame=34383 fps=131 q=32.0 size=   51915kB time=00:23:54.21 bitrate= 296.5kbits/s dup=1 drop=0 speed=5.48x    frame=34451 fps=131 q=32.0 size=   52013kB time=00:23:57.03 bitrate= 296.5kbits/s dup=1 drop=0 speed=5.48x    frame=34510 fps=131 q=32.0 size=   52164kB time=00:23:59.51 bitrate= 296.9kbits/s dup=1 drop=0 speed=5.47x    frame=34594 fps=131 q=32.0 size=   52237kB time=00:24:03.00 bitrate= 296.6kbits/s dup=1 drop=0 speed=5.48x    frame=34649 fps=131 q=32.0 size=   52399kB time=00:24:05.31 bitrate= 297.0kbits/s dup=1 drop=0 speed=5.48x    frame=34725 fps=131 q=32.0 size=   52524kB time=00:24:08.51 bitrate= 297.0kbits/s dup=1 drop=0 speed=5.48x    frame=34778 fps=131 q=32.0 size=   52670kB time=00:24:10.68 bitrate= 297.4kbits/s dup=1 drop=0 speed=5.47x    frame=34837 fps=131 q=32.0 size=   52797kB time=00:24:13.16 bitrate= 297.6kbits/s dup=1 drop=0 speed=5.47x    frame=34916 fps=131 q=32.0 size=   52930kB time=00:24:16.44 bitrate= 297.7kbits/s dup=1 drop=0 speed=5.48x    frame=35015 fps=131 q=32.0 size=   53058kB time=00:24:20.58 bitrate= 297.6kbits/s dup=1 drop=0 speed=5.48x    frame=35112 fps=132 q=32.0 size=   53151kB time=00:24:24.64 bitrate= 297.3kbits/s dup=1 drop=0 speed=5.49x    [mp4 @ 0x2318600] Starting second pass: moving the moov atom to the beginning of the file
frame=35204 fps=131 q=-1.0 Lsize=   54138kB time=00:24:28.26 bitrate= 302.1kbits/s dup=1 drop=0 speed=5.48x    
video:44006kB audio:9297kB subtitle:0kB other streams:0kB global headers:0kB muxing overhead: 1.565661%
[libx264 @ 0x2389020] frame I:313   Avg QP:22.03  size: 17960
[libx264 @ 0x2389020] frame P:11516 Avg QP:24.59  size:  2727
[libx264 @ 0x2389020] frame B:23375 Avg QP:29.15  size:   344
[libx264 @ 0x2389020] consecutive B-frames:  3.8% 10.7% 37.1% 48.4%
[libx264 @ 0x2389020] mb I  I16..4: 23.9% 52.3% 23.8%
[libx264 @ 0x2389020] mb P  I16..4:  5.0%  5.0%  1.1%  P16..4: 32.3%  4.8%  4.3%  0.2%  0.0%    skip:47.2%
[libx264 @ 0x2389020] mb B  I16..4:  0.3%  0.3%  0.1%  B16..8: 14.1%  0.8%  0.1%  direct: 0.5%  skip:83.9%  L0:39.6% L1:58.9% BI: 1.6%
[libx264 @ 0x2389020] 8x8 transform intra:46.3% inter:57.7%
[libx264 @ 0x2389020] coded y,uvDC,uvAC intra: 28.4% 54.6% 11.1% inter: 2.0% 4.6% 0.0%
[libx264 @ 0x2389020] i16 v,h,dc,p: 41% 34% 17%  8%
[libx264 @ 0x2389020] i8 v,h,dc,ddl,ddr,vr,hd,vl,hu: 22% 21% 41%  3%  2%  2%  3%  3%  3%
[libx264 @ 0x2389020] i4 v,h,dc,ddl,ddr,vr,hd,vl,hu: 27% 21% 19%  5%  5%  6%  6%  5%  5%
[libx264 @ 0x2389020] i8c dc,h,v,p: 43% 28% 23%  6%
[libx264 @ 0x2389020] Weighted P-Frames: Y:1.7% UV:1.2%
[libx264 @ 0x2389020] ref P L0: 63.1%  9.0% 12.3%  4.2%  3.2%  3.1%  2.7%  1.6%  0.7%  0.0%
[libx264 @ 0x2389020] ref B L0: 80.3%  8.3%  4.9%  2.0%  1.6%  1.8%  1.1%
[libx264 @ 0x2389020] ref B L1: 92.7%  7.3%
[libx264 @ 0x2389020] kb/s:245.52
